<?xml version="1.0" encoding="utf-8"?>
<!-- Generator: Adobe Illustrator 22.0.1, SVG Export Plug-In . SVG Version: 6.00 Build 0)  -->
<svg version="1.1" xmlns="http://www.w3.org/2000/svg" xmlns:xlink="http://www.w3.org/1999/xlink" x="0px" y="0px"
	 viewBox="0 0 1080 1080" style="enable-background:new 0 0 1080 1080;" xml:space="preserve">
<style type="text/css">
	.st0{fill:#FFFF00;}
	.st1{fill:#F15A24;}
	.st2{fill:#F7931E;}
	.st3{fill:#FBB03B;}
</style>
<g id="Camada_1">
</g>
<g id="head">
	<g>
		<g>
			<circle class="st0" cx="540.5" cy="534.8" r="310.5"/>
		</g>
		<g>
			<g>
				<path class="st1" d="M539.4,816.8c-54.7,0-99.2-44.5-99.2-99.2c0-3.9,0.2-7.9,0.7-11.7c2.6-22,12.7-42.7,28.4-58.4
					c0.2-0.2,0.4-0.4,0.6-0.6H609c0.2,0.2,0.4,0.4,0.6,0.6c15.9,15.9,26,36.9,28.5,59.2c0.4,3.6,0.6,7.3,0.6,11
					c0,26.5-10.3,51.4-29.1,70.1S565.9,816.8,539.4,816.8z"/>
				<path class="st2" d="M590.2,686.5c4.6,7.4,7.5,15.8,8.4,24.5c0,0,0,0.1,0,0.1c0.2,2.1,0.4,4.3,0.4,6.6
					c0,15.9-6.2,30.9-17.5,42.1c-11.3,11.3-26.2,17.5-42.1,17.5c-32.9,0-59.6-26.7-59.6-59.6c0-2.4,0.1-4.7,0.4-7c0,0,0-0.1,0-0.1
					c1.1-9.8,4.4-17.7,8.3-24H590.2 M623.6,607.3H455.2c-4.9,3.8-9.6,7.8-13.9,12.2c-21.5,21.5-36,50-39.7,81.7
					c-0.6,5.4-1,10.9-1,16.4c0,76.6,62.1,138.8,138.8,138.8c38.3,0,73-15.5,98.1-40.7c25.1-25.1,40.7-59.8,40.7-98.1
					c0-5.2-0.3-10.3-0.8-15.3c-3.5-32.2-18.1-61.1-39.8-82.9C633.2,615.1,628.5,611,623.6,607.3L623.6,607.3z"/>
			</g>
			<g>
				<path class="st3" d="M703.7,657.9c0,13.9-5.7,26.6-14.9,35.8c-3.4,3.4-7.2,6.3-11.4,8.6c-7.2,4-15.5,6.3-24.4,6.3H427.9
					c-9.6,0-18.6-2.7-26.3-7.4c-14.6-8.9-24.4-25-24.4-43.3c0-13.9,5.7-26.6,14.9-35.8c9.2-9.2,21.8-14.9,35.8-14.9H653
					C680.9,607.3,703.7,630.1,703.7,657.9z"/>
			</g>
		</g>
		<g>
			<path d="M474.5,490.5c0,6.5-2.5,13-7.5,18c-9.9,9.9-26.1,9.9-36,0l-21.9-21.9l-21.9,21.9c-5,5-11.5,7.5-18,7.5
				c-6.7,0-13.4-2.6-18.4-7.9c-9.6-10.1-9-26.1,0.8-35.9l21.5-21.5l0,0c19.9-19.9,52.1-19.9,72,0l0,0l21.9,21.9
				C472,477.5,474.5,484,474.5,490.5z"/>
			<path d="M737.2,490.5c0,6.7-2.6,13.4-7.9,18.4c-10.1,9.6-26.1,9-35.9-0.8l-21.5-21.5l-21.9,21.9c-5,5-11.5,7.5-18,7.5
				c-6.7,0-13.4-2.6-18.4-7.9c-9.6-10.1-9-26.1,0.8-35.9l21.5-21.5l0,0c19.9-19.9,52.1-19.9,72,0v0l21.9,21.9
				C734.7,477.5,737.2,484,737.2,490.5z"/>
		</g>
	</g>
</g>
</svg>
